<svg xmlns="http://www.w3.org/2000/svg" id="Component_1_1" data-name="Component 1 – 1" viewBox="0 0 185.028 150.134"><path id="Path_2" fill="#0B3C5D" d="M608.349,663.029V614.188a2.768,2.768,0,0,1,2.918-2.581h6.627a2.768,2.768,0,0,1,2.918,2.581v48.841a2.768,2.768,0,0,1-2.918,2.581h-6.627a2.768,2.768,0,0,1-2.918-2.581Z" data-name="Path 2" transform="translate(-515.821 -516.023)"/><path id="Path_3" fill="#0B3C5D" d="M579.156,663.029V614.188a2.768,2.768,0,0,1,2.918-2.581H588.7a2.768,2.768,0,0,1,2.918,2.581v48.841a2.768,2.768,0,0,1-2.918,2.581h-6.627A2.768,2.768,0,0,1,579.156,663.029Z" data-name="Path 3" transform="translate(-494.83 -516.023)"/><rect id="Rectangle_11" width="32.218" height="31.567" fill="#000" data-name="Rectangle 11" rx="6" transform="translate(78.45 87.112)"/><path id="Path_4" fill="#e6e6e6" d="M446.566,377.522s-13.54,5.563-25,9.252c-7.11-14.194-17.354-13.663-17.354-13.663L398,376.892l1.12,5.672-.305,9.273-1.629,4.862,2.337.374,1.32.212.2-.159a10.669,10.669,0,0,0-.4,3.535l58.743-8.1S457.357,384.185,446.566,377.522Z" data-name="Path 4" transform="translate(-371.723 -347.908)"/><path id="Path_20" fill="#0B3C5D" d="M3.479-.025,9.61-.392a2.208,2.208,0,0,1,2.343,2.435L8.9,55.016a2.931,2.931,0,0,1-2.641,2.733l-6.131.366A2.208,2.208,0,0,1-2.215,55.68L.838,2.707A2.931,2.931,0,0,1,3.479-.025Z" data-name="Path 20" transform="matrix(-0.594, -0.804, 0.804, -0.594, 54.031, 95.268)"/><path id="Path_21" fill="#0B3C5D" d="M2.583.088,9.041.406A2.878,2.878,0,0,1,11.8,2.985L14.441,53.23a2.252,2.252,0,0,1-2.5,2.322l-6.458-.317a2.878,2.878,0,0,1-2.754-2.58L.086,2.41A2.252,2.252,0,0,1,2.583.088Z" data-name="Path 21" transform="matrix(0.883, -0.469, 0.469, 0.883, 99.521, 57.081)"/><path id="Path_5" fill="#0B3C5D" d="M643.812,502.3l-9.56,5.6a3.072,3.072,0,0,1-3.908-.863L619.787,489.45a2.406,2.406,0,0,1,1.382-3.346l6.507-3.054a3.072,3.072,0,0,1,3.908.863l13.61,15.042A2.407,2.407,0,0,1,643.812,502.3Z" data-name="Path 5" transform="translate(-526.788 -427.485)"/><path id="Path_6" fill="#ccc" d="M527.655,496.871l6.213,7.3a2.948,2.948,0,0,0,3.808.107L554.1,490.644a2.193,2.193,0,0,0,.121-3.367L549.683,483a2.948,2.948,0,0,0-3.808-.107l-18.1,10.606A2.193,2.193,0,0,0,527.655,496.871Z" data-name="Path 6" transform="translate(-459.765 -426.947)"/><rect id="Rectangle_14" width="35.497" height="61.332" fill="#0B3C5D" data-name="Rectangle 14" rx="6" transform="translate(76.793 51.397)"/><ellipse id="Ellipse_1" cx="24.028" cy="21.249" fill="#ffc107" data-name="Ellipse 1" rx="24.028" ry="21.249" transform="translate(70.339 14.043)"/><path id="Path_7" fill="#000" d="M605.874,416.582a9.142,9.142,0,0,1-4.754-1,3.137,3.137,0,0,1-1.437-2.411,2.058,2.058,0,0,1,.835-1.784,3.509,3.509,0,0,1,3-.382l-1.212-7.832.89-.108,1.424,9.207-.743-.3a3.026,3.026,0,0,0-2.778.022,1.317,1.317,0,0,0-.517,1.149,2.369,2.369,0,0,0,1.069,1.8,8.219,8.219,0,0,0,4.25.849Z" data-name="Path 7" transform="translate(-508.394 -374.47)"/><rect id="Rectangle_15" width="4.836" height=".794" fill="#000" data-name="Rectangle 15" transform="translate(87.339 29.97)"/><rect id="Rectangle_16" width="4.836" height=".794" fill="#000" data-name="Rectangle 16" transform="translate(97.045 29.97)"/><path id="Path_8" fill="#000" d="M561.3,344.307a8.243,8.243,0,0,1-7.242-7.041c-.394-3.983,2.229-7.766,5.828-10,3.763-2.337,8.452-3.314,12.989-3.528a38.835,38.835,0,0,1,24.4,7.113c3.4,2.5,6.574,5.677,7.777,9.519a8.526,8.526,0,0,1-2.84,9.452,7.819,7.819,0,0,1-5.5,1.5,14.6,14.6,0,0,1-6.407-2.52c-3.658-2.352-6.66-5.628-11.117-6.857-3.267-.9-7.508-.108-9.5,2.505a4.441,4.441,0,0,0-.859,1.993.611.611,0,0,0,.47.733.692.692,0,0,0,.829-.416c.524-3.291,5.1-4.519,8.312-3.768,4.682,1.1,7.825,4.791,11.667,7.138a15.272,15.272,0,0,0,6.794,2.4,9.21,9.21,0,0,0,5.928-1.61,9.55,9.55,0,0,0,3.811-9.782c-.84-4.109-3.968-7.632-7.4-10.358a39.976,39.976,0,0,0-25.3-8.264,30.543,30.543,0,0,0-13.79,3.182c-3.967,2.152-7.033,5.753-7.434,9.939a9.214,9.214,0,0,0,5.719,9.151,9.872,9.872,0,0,0,2.87.716c.86.087.853-1.105,0-1.191Z" data-name="Path 8" transform="translate(-483.978 -322.504)"/><path id="Path_9" fill="#ccc" d="M399.553,396.568l2.851-.81c.305-.518-.254-.186.013-.689,7.212-13.607.547-21.954.547-21.954l-5.156,3.14c-.013-.026-.023-.053-.036-.079,0,0-.916-1.8-2.342-.45a28.516,28.516,0,0,1-.509,21.608l5.8,2.341,2.24-2.341.051-.225-4.009-.322Z" data-name="Path 9" transform="translate(-358.878 -350.176)"/><path id="Path_10" fill="#4caf50" d="M465.12,453.7c-18.734-3.416-36.177,3.655-36.177,3.655l-.047-.035-6.947-5.088-27.143-36.342,6.619.034c18.4-9.017,44.294-7.788,44.294-7.788C456.878,418.515,465.12,453.7,465.12,453.7Z" data-name="Path 10" transform="translate(-369.347 -365.963)"/><path id="Path_11" d="M426.693,475.531l-6.5-5.1L394.807,434l6.191.034S425.675,462.692,426.693,475.531Z" data-name="Path 11" opacity=".1" transform="translate(-359.533 -387.088)"/><path id="Path_22" fill="#2E7D31" d="M10.216.234C15.9.42,20.6,3.216,20.719,6.478s-4.392,5.756-10.074,5.57S.261,9.067.142,5.8,4.534.048,10.216.234Z" data-name="Path 22" transform="translate(58.218 57.075) rotate(-17.052)"/><path id="Path_12" fill="#ccc" d="M325.614,357.329c-1.829,5.979-8.094,9.682-8.094,9.682s-3.3-5.991-1.47-11.97,8.094-9.682,8.094-9.682S327.443,351.35,325.614,357.329Z" data-name="Path 12" transform="translate(-299.12 -337.122)"/><path id="Path_13" fill="#ccc" d="M300.292,357.329c1.829,5.979,8.094,9.682,8.094,9.682s3.3-5.991,1.47-11.97-8.094-9.682-8.094-9.682S298.463,351.35,300.292,357.329Z" data-name="Path 13" transform="translate(-290.437 -337.122)"/><path id="Path_14" fill="#ffc107" d="M291.562,365.158c5.019,4.32,5.632,10.962,5.632,10.962s-7.524-.363-12.543-4.684-5.632-10.962-5.632-10.962S286.543,360.837,291.562,365.158Z" data-name="Path 14" transform="translate(-279.019 -346.733)"/><path id="Path_15" fill="#ffc107" d="M325.132,365.158c-5.019,4.32-5.632,10.962-5.632,10.962s7.524-.363,12.543-4.684,5.632-10.962,5.632-10.962S330.151,360.837,325.132,365.158Z" data-name="Path 15" transform="translate(-301.325 -346.733)"/><path id="Path_16" fill="#ccc" d="M886.614,527.329c-1.829,5.979-8.094,9.682-8.094,9.682s-3.3-5.991-1.47-11.97,8.094-9.682,8.094-9.682S888.443,521.351,886.614,527.329Z" data-name="Path 16" transform="translate(-711.441 -448.568)"/><path id="Path_17" fill="#ccc" d="M861.292,527.329c1.829,5.979,8.094,9.682,8.094,9.682s3.3-5.991,1.47-11.97-8.094-9.682-8.094-9.682S859.463,521.351,861.292,527.329Z" data-name="Path 17" transform="translate(-702.758 -448.568)"/><path id="Path_18" fill="#ffc107" d="M852.562,535.158c5.019,4.32,5.632,10.962,5.632,10.962s-7.524-.363-12.543-4.684-5.632-10.962-5.632-10.962S847.543,530.837,852.562,535.158Z" data-name="Path 18" transform="translate(-691.341 -457.936)"/><path id="Path_19" fill="#ffc107" d="M886.132,535.158c-5.019,4.32-5.632,10.962-5.632,10.962s7.524-.363,12.543-4.684,5.632-10.962,5.632-10.962S891.151,530.837,886.132,535.158Z" data-name="Path 19" transform="translate(-713.647 -457.936)"/></svg>